<?xml version="1.0" standalone="no"?>
<!DOCTYPE svg PUBLIC "-//W3C//DTD SVG 20010904//EN"
 "http://www.w3.org/TR/2001/REC-SVG-20010904/DTD/svg10.dtd">
<svg version="1.0" xmlns="http://www.w3.org/2000/svg"
 width="512.000000pt" height="512.000000pt" viewBox="0 0 512.000000 512.000000"
 preserveAspectRatio="xMidYMid meet">

<g transform="translate(0.000000,512.000000) scale(0.100000,-0.100000)"
fill="#000000" stroke="none">
<path d="M2503 5102 c-133 -48 -223 -155 -269 -321 -14 -51 -20 -59 -31 -49
-22 18 -185 22 -280 8 -94 -14 -106 -24 -118 -99 l-7 -43 -47 6 c-206 26 -261
28 -471 22 -124 -3 -277 -12 -340 -20 l-115 -13 -64 -64 c-35 -35 -71 -80 -81
-99 -73 -145 -107 -566 -90 -1139 5 -179 12 -488 15 -686 8 -510 23 -975 45
-1455 24 -489 57 -1017 65 -1030 4 -6 10 -10 15 -10 4 0 30 -15 57 -33 30 -20
80 -41 129 -53 111 -27 444 -25 754 4 218 21 267 22 1440 20 l1215 -3 54 29
c30 15 70 43 90 63 l36 35 7 266 c42 1540 21 2746 -67 3737 l-24 270 -43 38
c-88 79 -143 94 -403 109 -134 7 -257 8 -374 2 -115 -6 -175 -6 -176 1 -2 6
-6 22 -9 37 -5 22 -15 29 -64 43 -48 15 -82 16 -219 10 -132 -5 -164 -4 -167
7 -2 7 -11 44 -20 81 -33 143 -109 258 -206 311 -69 38 -162 45 -237 18z m203
-96 c89 -41 140 -137 174 -328 11 -61 19 -113 17 -114 -11 -11 -443 -43 -581
-44 l-29 0 6 88 c10 153 77 311 157 370 75 56 173 67 256 28z m-446 -539 c19
-4 125 -11 235 -14 160 -4 227 -2 330 12 72 9 138 21 148 26 18 10 23 44 7 54
-5 3 -10 19 -10 36 l0 29 180 -2 180 -3 2 -65 c5 -194 -11 -274 -71 -342 -81
-91 -191 -114 -460 -97 -97 7 -250 10 -341 8 -350 -8 -409 -5 -471 23 -113 52
-146 140 -135 363 4 77 12 145 17 150 6 6 83 12 172 15 l162 5 10 -95 10 -94
35 -9z m-490 -31 l-12 -83 -250 -7 c-363 -10 -388 -18 -388 -126 l0 -60 -192
0 c-106 0 -202 3 -214 6 -21 5 -21 7 -8 70 8 35 20 79 27 97 l14 33 214 13
c218 14 239 16 239 32 0 12 -123 10 -297 -4 -79 -7 -143 -11 -143 -9 0 9 42
81 62 105 l24 29 265 -12 c195 -8 317 -9 459 -1 107 6 196 14 199 17 12 12 12
-21 1 -100z m2075 74 c352 -11 403 -20 491 -87 l31 -23 6 -953 c4 -699 14
-1252 37 -2081 24 -883 29 -1135 19 -1157 -6 -16 -29 -44 -50 -63 l-38 -35
-983 4 c-541 3 -1149 7 -1353 10 -255 3 -440 0 -595 -10 -360 -23 -502 -18
-592 22 -74 32 -49 39 150 46 103 4 256 7 340 7 119 0 153 3 149 13 -3 9 -66
12 -273 12 -148 0 -300 -2 -339 -4 l-70 -5 -3 76 -3 75 613 -4 c381 -3 618 -1
627 5 44 31 0 33 -623 31 -605 -2 -621 -2 -623 17 -1 10 -4 52 -5 92 l-4 73
179 -7 c151 -6 179 -5 175 7 -6 17 -77 27 -204 28 -50 1 -106 4 -123 7 -30 6
-31 8 -31 65 0 46 3 59 18 63 30 9 134 24 210 31 39 4 72 11 72 16 0 14 -117
10 -213 -7 -48 -9 -90 -15 -92 -13 -1 2 -5 62 -6 133 l-4 129 162 1 c89 1 165
5 169 9 17 17 -18 22 -172 25 l-164 3 0 64 c0 35 -3 70 -6 79 -5 13 1 16 27
16 40 1 288 46 297 54 27 28 -93 16 -296 -29 l-32 -7 0 89 c0 48 -3 104 -6
124 l-6 37 99 7 c125 9 165 17 171 34 4 12 -13 13 -99 7 -57 -4 -119 -9 -136
-12 l-33 -6 0 80 0 80 155 7 c111 5 158 11 166 21 20 24 -14 27 -169 17 -81
-6 -150 -8 -154 -6 -5 2 -8 49 -8 104 l0 99 48 2 c89 3 207 -3 273 -13 l66
-10 7 -207 c32 -1056 39 -1249 46 -1262 8 -13 178 -15 1440 -15 1423 0 1431 0
1435 20 3 11 16 324 30 695 14 371 32 842 40 1045 25 625 35 1098 35 1613 0
438 -2 493 -16 499 -8 3 -19 2 -24 -3 -9 -9 -41 -473 -60 -849 -23 -466 -28
-667 -64 -2318 -8 -340 -15 -620 -17 -622 -2 -1 -103 3 -224 10 -807 50 -1694
43 -2350 -20 -82 -7 -152 -11 -155 -9 -13 13 -20 566 -26 2116 l-7 1667 134 0
c74 1 204 5 289 10 85 6 155 9 155 8 1 -1 6 -29 13 -61 14 -71 31 -98 80 -131
85 -56 110 -58 797 -59 l630 -1 48 23 c59 30 94 86 110 177 l11 65 31 -5 c159
-26 451 -32 539 -12 54 13 79 38 58 59 -10 10 -90 14 -320 18 l-307 5 -7 50
c-3 28 -7 68 -7 89 l-1 39 58 -7 c31 -3 192 -11 357 -16z m-2729 -394 c0 0 -6
-129 -14 -286 -9 -192 -15 -548 -16 -1088 l-1 -802 -45 7 c-25 5 -111 8 -193
8 l-147 0 0 57 0 57 148 3 c197 4 192 22 -8 26 l-150 3 0 88 0 88 68 6 c37 4
99 7 139 7 70 0 102 13 66 27 -24 10 -155 10 -220 0 l-53 -8 0 120 0 120 150
3 c92 2 150 7 150 13 0 6 -58 11 -150 13 l-150 3 0 89 0 90 28 1 c304 14 307
14 307 29 0 12 -18 15 -100 15 -55 0 -130 -4 -167 -8 l-68 -8 0 131 0 130 116
0 c105 0 115 2 112 18 -3 15 -18 17 -116 20 l-112 3 0 53 c0 29 -3 87 -6 128
l-7 75 134 5 c137 6 202 19 182 39 -8 8 -37 8 -99 0 -49 -6 -117 -11 -151 -11
l-63 0 0 63 c0 34 -3 85 -6 113 l-6 51 128 7 c234 12 274 17 274 34 0 13 -24
14 -200 9 l-200 -7 0 118 0 117 158 0 c165 1 205 6 183 28 -8 8 -65 13 -177
16 l-165 3 7 92 c3 50 8 94 11 98 3 5 425 0 429 -6z"/>
</g>
</svg>
